Coordinates
version=1
nRows=14
nColumns=24
inDegrees=yes

Units are S.I. units (second, meters, Newtons, ...)
Angles are in degrees.

endheader
time	pelvis_tilt	pelvis_list	pelvis_rotation	pelvis_tx	pelvis_ty	pelvis_tz	hip_flexion_r	hip_adduction_r	hip_rotation_r	knee_angle_r	ankle_angle_r	subtalar_angle_r	mtp_angle_r	hip_flexion_l	hip_adduction_l	hip_rotation_l	knee_angle_l	ankle_angle_l	subtalar_angle_l	mtp_angle_l	lumbar_extension	lumbar_bending	lumbar_rotation
      5.76000000	     11.87883173	      0.34570840	    -19.99468989	     -0.53341073	      0.81724494	      0.16688045	     -7.36270475	     -5.44063884	      8.02764919	    -62.61402915	     -1.69858984	     -9.14618290	      0.00000000	     -1.32494152	      7.08360167	     -2.18963457	    -18.34207614	     15.04529297	    -11.53283062	      0.00000000	    -25.36481944	     -7.80398542	     13.94575958
      5.77000000	     11.49915491	     -0.01651368	    -19.60847168	     -0.52041659	      0.81935450	      0.16633730	     -4.97714028	     -4.22857778	      7.68723432	    -64.27621905	      0.33379450	     -9.39141182	      0.00000000	     -2.77621660	      6.97315100	     -1.52921697	    -16.91322190	     14.91653686	    -11.83322671	      0.00000000	    -25.19856120	     -7.00013929	     13.26979905
      5.78000000	     11.06663850	     -0.42467480	    -19.14255449	     -0.50756995	      0.82141886	      0.16585826	     -2.60842170	     -2.94556842	      7.23606369	    -65.48032336	      2.29344396	     -9.19564339	      0.00000000	     -4.20676783	      6.73429052	     -0.88717158	    -15.42420155	     14.66487296	    -11.99896748	      0.00000000	    -25.00717513	     -6.14976378	     12.53304813
      5.79000000	     10.58299880	     -0.85702755	    -18.61591259	     -0.49487753	      0.82333899	      0.16532866	     -0.23870914	     -1.65634788	      6.66274050	    -66.24503452	      4.10484005	     -8.65974783	      0.00000000	     -5.57534506	      6.40114913	     -0.36470283	    -13.91776044	     14.33709490	    -12.09586262	      0.00000000	    -24.80972800	     -5.23625547	     11.75883279
      5.80000000	     10.15321515	     -1.32846476	    -18.07275332	     -0.48228433	      0.82516103	      0.16490910	      1.99535572	     -0.37346531	      6.05890610	    -66.56402833	      5.72789470	     -7.86924443	      0.00000000	     -7.01258306	      5.97998103	      0.01646940	    -12.39592732	     14.14368686	    -11.78475677	      0.00000000	    -24.69089718	     -4.33608642	     11.02917044
      5.81000000	      9.70280765	     -1.77345518	    -17.46816372	     -0.46982648	      0.82677240	      0.16443442	      4.19340630	      0.83689490	      5.38204869	    -66.45469147	      7.16106892	     -6.92499349	      0.00000000	     -8.36920037	      5.53100549	      0.26341086	    -10.91629635	     13.89217686	    -11.35854612	      0.00000000	    -24.57902279	     -3.44581053	     10.21446385
      5.82000000	      9.26233484	     -2.20032602	    -16.83200711	     -0.45749725	      0.82816857	      0.16395250	      6.30784923	      1.97735730	      4.70234040	    -65.91545788	      8.36698074	     -5.96495113	      0.00000000	     -9.67712478	      5.06386548	      0.40360121	     -9.49641713	     13.65922562	    -10.77466629	      0.00000000	    -24.50605496	     -2.58502949	      9.37676274
      5.83000000	      8.84699747	     -2.57437283	    -16.12556571	     -0.44532525	      0.82931881	      0.16341597	      8.32640542	      2.99272234	      3.99521434	    -64.96241282	      9.38013358	     -5.06450174	      0.00000000	    -10.91157580	      4.61757034	      0.50534980	     -8.19100493	     13.44675406	    -10.05839827	      0.00000000	    -24.48026814	     -1.78351393	      8.41882510
      5.84000000	      8.46611878	     -2.89883018	    -15.35732528	     -0.43328654	      0.83022709	      0.16283420	     10.21996060	      3.88385405	      3.30184167	    -63.58597064	     10.15087483	     -4.34265006	      0.00000000	    -12.08161104	      4.19780066	      0.59682525	     -7.00896571	     13.26302082	     -9.26319864	      0.00000000	    -24.51400875	     -1.03604504	      7.37136883
      5.85000000	      8.12294486	     -3.17312069	    -14.54109253	     -0.42136354	      0.83088097	      0.16222106	     11.97001396	      4.64347909	      2.64941043	    -61.78644079	     10.67666518	     -3.84555283	      0.00000000	    -13.19981758	      3.81141932	      0.71741077	     -5.94011605	     13.10097410	     -8.44930319	      0.00000000	    -24.59076214	     -0.34670466	      6.25767797
      5.86000000	      7.86826556	     -3.37307016	    -13.61847096	     -0.40959723	      0.83132827	      0.16154421	     13.50771704	      5.22769663	      2.00611016	    -59.54971868	     10.93784684	     -3.68441193	      0.00000000	    -14.28256805	      3.48119440	      0.89830884	     -5.03528570	     12.93907093	     -7.64502591	      0.00000000	    -24.80343167	      0.25412167	      4.92912694
      5.87000000	      7.60323044	     -3.51693807	    -12.71575418	     -0.39779004	      0.83140734	      0.16087627	     14.90854638	      5.68344236	      1.47850120	    -56.89734576	     11.02579605	     -3.71782169	      0.00000000	    -15.31847946	      3.19853901	      1.16969645	     -4.17649511	     12.81131964	     -6.94731415	      0.00000000	    -24.94818318	      0.81722181	      3.66110297
      5.88000000	      7.39840547	     -3.58164561	    -11.72003419	     -0.38604273	      0.83124010	      0.16019533	     16.07669576	      5.96439069	      0.98542102	    -53.79009078	     10.87529858	     -4.03145750	      0.00000000	    -16.32031120	      2.96665149	      1.53305608	     -3.44761248	     12.66910455	     -6.33529904	      0.00000000	    -25.15985062	      1.27505718	      2.20779983
      5.89000000	      7.25124934	     -3.57945516	    -10.69419614	     -0.37425464	      0.83078037	      0.15952228	     16.98732767	      6.09012211	      0.56843939	    -50.23360573	     10.57244699	     -4.52103373	      0.00000000	    -17.34000255	      2.78701198	      2.00319521	     -2.78171202	     12.54448591	     -5.82664093	      0.00000000	    -25.40907569	      1.67024647	      0.66846455
